<svg t="1561430056882" class="icon" viewBox="0 0 1042 1024" version="1.1" xmlns="http://www.w3.org/2000/svg" p-id="8192" width="200" height="200"><path d="M947.2 381.672727h6.981818V162.909091c0-51.2-41.890909-93.090909-93.090909-93.090909H162.909091C111.709091 69.818182 69.818182 111.709091 69.818182 162.909091v218.763636c72.145455 0 130.327273 58.181818 130.327273 130.327273 0 72.145455-58.181818 130.327273-130.327273 130.327273V861.090909c0 51.2 41.890909 93.090909 93.090909 93.090909h698.181818c51.2 0 93.090909-41.890909 93.090909-93.090909v-218.763636c-95.418182 0-165.236364-100.072727-111.709091-200.145455 18.618182-39.563636 60.509091-60.509091 104.727273-60.509091zM800.581818 418.909091c-32.581818 60.509091-32.581818 128 2.327273 183.854545 23.272727 39.563636 62.836364 67.490909 104.727273 79.127273V861.090909c0 25.6-20.945455 46.545455-46.545455 46.545455H162.909091c-25.6 0-46.545455-20.945455-46.545455-46.545455v-176.872727c74.472727-20.945455 130.327273-88.436364 130.327273-172.218182 0-81.454545-55.854545-151.272727-130.327273-172.218182V162.909091c0-25.6 20.945455-46.545455 46.545455-46.545455h698.181818c25.6 0 46.545455 20.945455 46.545455 46.545455v176.872727c-46.545455 9.309091-86.109091 39.563636-107.054546 79.127273z" fill="#1296db" p-id="8193"></path><path d="M684.218182 318.836364H339.781818c-13.963636 0-23.272727 9.309091-23.272727 23.272727s9.309091 23.272727 23.272727 23.272727h344.436364c13.963636 0 23.272727-9.309091 23.272727-23.272727s-9.309091-23.272727-23.272727-23.272727zM684.218182 488.727273H339.781818c-13.963636 0-23.272727 9.309091-23.272727 23.272727s9.309091 23.272727 23.272727 23.272727h344.436364c13.963636 0 23.272727-9.309091 23.272727-23.272727s-9.309091-23.272727-23.272727-23.272727zM684.218182 660.945455H339.781818c-13.963636 0-23.272727 9.309091-23.272727 23.272727s9.309091 23.272727 23.272727 23.272727h344.436364c13.963636 0 23.272727-9.309091 23.272727-23.272727s-9.309091-23.272727-23.272727-23.272727z" fill="#1296db" p-id="8194"></path></svg>