<svg t="1561429962933" class="icon" viewBox="0 0 1024 1024" version="1.1" xmlns="http://www.w3.org/2000/svg" p-id="5904" width="200" height="200"><path d="M512 1024C229.229714 1024 0 794.733714 0 511.963429 0 229.193143 229.229714-0.036571 512-0.036571 794.770286-0.036571 1024 229.193143 1024 511.963429 1024 794.733714 794.770286 1024 512 1024ZM512 73.142857C269.641143 73.142857 73.142857 269.641143 73.142857 512 73.142857 754.358857 269.641143 950.857143 512 950.857143 754.358857 950.857143 950.857143 754.358857 950.857143 512 950.857143 269.641143 754.358857 73.142857 512 73.142857ZM676.571429 548.571429 493.714286 548.571429C483.620571 548.571429 475.428571 540.379429 475.428571 530.285714L475.428571 493.714286 475.428571 493.677714 475.428571 201.142857C475.428571 191.049143 483.620571 182.857143 493.714286 182.857143L530.285714 182.857143C540.379429 182.857143 548.571429 191.049143 548.571429 201.142857L548.571429 475.392 676.571429 475.392C686.665143 475.392 694.857143 483.584 694.857143 493.677714L694.857143 530.285714C694.857143 540.379429 686.665143 548.571429 676.571429 548.571429Z" p-id="5905" fill="#1296db"></path></svg>